<svg xmlns="http://www.w3.org/2000/svg" viewBox="0 0 5517 1471"><g transform="translate(380.2,363.0) scale(7.5821)"><circle r="42" fill="none" stroke="#2563EB" stroke-width="11" stroke-linecap="round" stroke-dasharray="227 37" transform="rotate(80)"/><line x1="15" y1="23" x2="31" y2="47" stroke="#2563EB" stroke-width="11" stroke-linecap="round"/><circle r="12" fill="#2563EB"/></g><g transform="translate(980.4,706.0) scale(1,-1)"><g fill="#0A0E17"><path d="M378.4864501953125 -12.0Q273.4864501953125 -12.0 199.71612548828125 25.72967529296875Q125.94580078125 63.4593505859375 87.17547607421875 142.08096313476562Q48.4051513671875 220.70257568359375 48.4051513671875 343.0Q48.4051513671875 522.7838745117188 135.67547607421875 610.3919372558594Q222.94580078125 698.0 378.972900390625 698.0Q465.4322509765625 698.0 533.6890258789062 669.2432250976562Q601.94580078125 640.4864501953125 641.5945129394531 582.5945129394531Q681.2432250976562 524.7025756835938 681.2432250976562 435.918701171875H567.4580078125Q567.4580078125 491.2696533203125 544.01220703125 528.3235168457031Q520.56640625 565.3773803710938 478.3099670410156 584.2286682128906Q436.05352783203125 603.0799560546875 380.0 603.0799560546875Q309.81097412109375 603.0799560546875 261.16259765625 575.7286682128906Q212.51422119140625 548.3773803710938 188.09552001953125 492.97222900390625Q163.67681884765625 437.56707763671875 163.67681884765625 352.5406494140625V330.78387451171875Q163.67681884765625 246.216796875 188.09552001953125 191.298095703125Q212.51422119140625 136.37939453125 260.7842102050781 109.64971923828125Q309.05419921875 82.9200439453125 380.24322509765625 82.9200439453125Q438.3238525390625 82.9200439453125 481.3370666503906 101.3929443359375Q524.3502807617188 119.8658447265625 547.9176940917969 156.91970825195312Q571.485107421875 193.97357177734375 571.485107421875 249.32452392578125H681.2432250976562Q681.2432250976562 160.05419921875 641.4864501953125 102.16226196289062Q601.7296752929688 44.27032470703125 533.3512878417969 16.135162353515625Q464.972900390625 -12.0 378.4864501953125 -12.0Z"/><path d="M836.3509521484375 0.0V686.0H1367.7025756835938V590.3231811523438H947.8658447265625V398.7032470703125H1323.7025756835938V303.02642822265625H947.8658447265625V95.67681884765625H1373.7025756835938V0.0Z"/><path d="M1540.3509521484375 0.0V686.0H1647.5684204101562L1961.4857788085938 256.1910400390625Q1966.72900390625 249.94781494140625 1974.2154541015625 238.83975219726562Q1981.701904296875 227.731689453125 1988.6748046875 216.7587890625Q1995.647705078125 205.785888671875 1999.1070556640625 198.56976318359375H2003.8638305664062Q2003.8638305664062 213.54266357421875 2003.8638305664062 227.7587890625Q2003.8638305664062 241.97491455078125 2003.8638305664062 256.1910400390625V686.0H2111.5948486328125V0.0H2008.0528564453125L1691.189697265625 435.48443603515625Q1683.4329223632812 446.7547607421875 1671.3519592285156 465.5924987792969Q1659.27099609375 484.43023681640625 1652.8387451171875 494.34893798828125H1648.0819702148438Q1648.0819702148438 479.88958740234375 1648.0819702148438 465.2950744628906Q1648.0819702148438 450.7005615234375 1648.0819702148438 435.48443603515625V0.0Z"/><path d="M2472.3509521484375 0.0V589.56640625H2244.8380737304688V686.0H2812.8651733398438V589.56640625H2583.8658447265625V0.0Z"/><path d="M2946.3509521484375 0.0V686.0H3307.1077270507812Q3380.1890258789062 686.0 3428.2432250976562 660.2432250976562Q3476.2974243164062 634.4864501953125 3500.3245239257812 587.94580078125Q3524.3516235351562 541.4051513671875 3524.3516235351562 479.3238525390625Q3524.3516235351562 410.3780517578125 3493.135498046875 359.12127685546875Q3461.9193725585938 307.864501953125 3405.135498046875 283.810302734375L3548.3516235351562 0.0H3426.2960815429688L3296.4044799804688 264.72900390625H3057.8658447265625V0.0ZM3057.8658447265625 358.89227294921875H3297.5941772460938Q3351.72900390625 358.89227294921875 3381.526092529297 391.05419921875Q3411.3231811523438 423.21612548828125 3411.3231811523438 479.56707763671875Q3411.3231811523438 514.9993286132812 3398.3502807617188 539.4451293945312Q3385.3773803710938 563.8909301757812 3360.1883544921875 577.1070556640625Q3334.9993286132812 590.3231811523438 3297.5941772460938 590.3231811523438H3057.8658447265625Z"/><path d="M4009.4593505859375 -12.0Q3902.7025756835938 -12.0 3825.3106384277344 26.864837646484375Q3747.918701171875 65.72967529296875 3706.6619262695312 144.72967529296875Q3665.4051513671875 223.72967529296875 3665.4051513671875 343.0Q3665.4051513671875 463.27032470703125 3706.6619262695312 541.7703247070312Q3747.918701171875 620.2703247070312 3825.3106384277344 659.1351623535156Q3902.7025756835938 698.0 4009.4593505859375 698.0Q4117.216125488281 698.0 4194.229675292969 659.1351623535156Q4271.243225097656 620.2703247070312 4312.5 541.7703247070312Q4353.756774902344 463.27032470703125 4353.756774902344 343.0Q4353.756774902344 223.72967529296875 4312.5 144.72967529296875Q4271.243225097656 65.72967529296875 4194.229675292969 26.864837646484375Q4117.216125488281 -12.0 4009.4593505859375 -12.0ZM4009.4593505859375 82.9200439453125Q4063.8916015625 82.9200439453125 4106.431915283203 98.16326904296875Q4148.972229003906 113.406494140625 4178.526092529297 144.3658447265625Q4208.0799560546875 175.3251953125 4223.660919189453 221.98712158203125Q4239.241882324219 268.6490478515625 4239.241882324219 331.4864501953125V353.0Q4239.241882324219 416.59417724609375 4223.660919189453 463.6344909667969Q4208.0799560546875 510.6748046875 4178.526092529297 541.6341552734375Q4148.972229003906 572.593505859375 4106.431915283203 587.8367309570312Q4063.8916015625 603.0799560546875 4009.4593505859375 603.0799560546875Q3955.027099609375 603.0799560546875 3912.6083984375 587.8367309570312Q3870.189697265625 572.593505859375 3840.6358337402344 541.6341552734375Q3811.0819702148438 510.6748046875 3795.87939453125 463.6344909667969Q3780.6768188476562 416.59417724609375 3780.6768188476562 353.0V331.4864501953125Q3780.6768188476562 268.6490478515625 3795.87939453125 221.98712158203125Q3811.0819702148438 175.3251953125 3840.6358337402344 144.3658447265625Q3870.189697265625 113.406494140625 3912.6083984375 98.16326904296875Q3955.027099609375 82.9200439453125 4009.4593505859375 82.9200439453125Z"/></g><line x1="4132.5" y1="154.5" x2="4263.6" y2="-42.1" stroke="#0A0E17" stroke-width="114.9" stroke-linecap="round"/></g></svg>