<?xml version="1.0" encoding="UTF-8" standalone="no"?>
<!DOCTYPE svg PUBLIC "-//W3C//DTD SVG 1.1//EN" "http://www.w3.org/Graphics/SVG/1.1/DTD/svg11.dtd">
<svg width="100%" height="100%" viewBox="0 0 807 192" version="1.1" xmlns="http://www.w3.org/2000/svg" xmlns:xlink="http://www.w3.org/1999/xlink" xml:space="preserve" xmlns:serif="http://www.serif.com/" style="fill-rule:evenodd;clip-rule:evenodd;stroke-linejoin:round;stroke-miterlimit:2;">
    <g transform="matrix(1,0,0,1,-104.328,-372.832)">
        <g transform="matrix(0.321047,0,0,0.313272,96.3218,362.99)">
            <path d="M632.215,94.041C632.215,59.479 604.835,31.419 571.11,31.419L86.042,31.419C52.318,31.419 24.937,59.479 24.937,94.041L24.937,580.057C24.937,614.619 52.318,642.679 86.042,642.679L571.11,642.679C604.835,642.679 632.215,614.619 632.215,580.057L632.215,94.041Z" style="fill:rgb(20,71,229);"/>
        </g>
        <g transform="matrix(0.152503,0,0,0.152503,123.729,390.496)">
            <g>
                <g transform="matrix(2.66054,0,0,2.66054,-851.58,-660.824)">
                    <path d="M639.58,338.08L636.78,335.16L640.14,332.11C641.99,330.43 643.92,329.05 644.43,329.03C644.94,329.01 646.57,330.45 648.05,332.23L650.74,335.46L647.12,338.2C645.13,339.71 643.25,340.96 642.94,340.97C642.63,340.99 641.12,339.69 639.58,338.08ZM527.86,269.65C527.98,268.76 528.7,268.23 529.91,268.07C530.47,268.09 531.18,268.16 532.08,268.28C533.43,268.47 534.73,268.71 535.61,268.95C536.31,269.31 536.71,269.87 536.89,270.74C536.88,271.69 536.77,273.04 536.56,274.45C536.54,274.58 536.52,274.69 536.5,274.81C535.86,275.79 534.4,276.14 531.21,276.59C527.42,277.12 527.3,277.05 527.49,274.32C527.52,273.95 527.55,273.54 527.58,273.14C527.69,271.78 527.8,270.4 527.86,269.65Z" style="fill:rgb(160,164,167);fill-rule:nonzero;"/>
                </g>
                <g transform="matrix(2.66054,0,0,2.66054,-851.58,-660.824)">
                    <path d="M497.59,592.97C442.35,586.66 396.87,554.99 373.47,506.53C363.05,484.96 358.62,464.96 358.63,439.5C358.64,413.49 362.93,395.22 374.35,372.67C382.43,356.72 391.04,344.84 403.45,332.5C425.06,311.02 452.52,296.36 482.5,290.32C496.2,287.56 531.86,287.8 545,290.75C585.55,299.85 618.14,322.11 641.17,356.44C668.8,397.63 674.17,448.31 655.91,495.51C636.66,545.25 590.92,582.04 536.59,591.46C525.16,593.45 507.68,594.12 497.59,592.97ZM540,582.54C582.46,573.05 616.53,548.85 638.43,512.6C650.99,491.8 658,465.67 658,439.62C657.99,401.91 643.25,366.26 616.55,339.38C597.34,320.04 576.56,307.72 552,301.09C515.04,291.11 474.82,295.85 441.49,314.11C409.41,331.69 383.38,363.19 373,397C368.23,412.53 366.66,422.95 366.67,439C366.68,469.36 374.91,496.72 391.7,522.2C397.99,531.75 413.02,547.3 423.83,555.44C440.39,567.91 467.17,579.57 488,583.37C499.29,585.43 529.2,584.95 540,582.54ZM470,608.39C425.38,596.41 386.85,567.73 364.51,529.88C356.21,515.81 356.2,515.75 360.32,513.53C362.16,512.53 364.24,511.91 364.93,512.14C365.62,512.37 367.88,515.63 369.94,519.39C391.24,558.16 428.78,586.38 475.8,598.96C479.09,599.84 479.99,600.51 479.62,601.81C479.36,602.74 478.85,604.96 478.5,606.75C477.76,610.41 477.61,610.43 470,608.39ZM620.67,318.87C601.5,301.82 576.15,288.56 550.13,281.97L545.77,280.86L546.43,276.68C546.8,274.38 547.45,272.15 547.87,271.73C550.06,269.54 582.36,281 597,289.17C606.13,294.26 621.91,305.92 629.71,313.33L637.06,320.31L634.78,322.75C630.49,327.33 630.05,327.21 620.67,318.87ZM491.81,613.3C488.85,612.84 488.31,611.46 488.85,605.79C489.21,602.03 489.24,602 493.65,602L498.1,602L497.8,607.74C497.48,613.84 497.16,614.14 491.81,613.3ZM350.55,502.1C348.3,497.74 348.62,496.33 352.15,495.1C357,493.41 357.99,493.73 359.55,497.47L359.57,497.51C360.64,500.08 361.09,501.15 360.74,501.79C360.5,502.24 359.85,502.48 358.75,502.89C352.45,505.25 352.16,505.22 350.55,502.1Z" style="fill:rgb(146,219,222);fill-rule:nonzero;"/>
                </g>
                <g transform="matrix(2.66054,0,0,2.66054,-851.58,-660.824)">
                    <path d="M510,610.31L510,599.29L521.75,598.69C542.19,597.63 562.56,592.22 582.52,582.55C598.28,574.92 610.37,566.45 623.4,553.92C629.65,547.91 635.16,543.01 635.63,543.03C636.78,543.07 643,548.75 643,549.76C643,550.82 627.74,565.65 621.5,570.67C592.98,593.58 556.2,607.98 521.8,609.71L510,610.31ZM508.75,580.28C507.68,580.02 507,578.91 507,577.43C507,575.1 507.27,575 513.78,575C528.88,575 545.51,571.68 561.71,565.43C570.91,561.88 590.32,550.92 594.7,546.81C596.98,544.67 597.04,544.67 598.48,546.57C599.28,547.63 599.95,548.82 599.97,549.22C600.01,550.07 587.81,558.33 580,562.75C565.41,571 541.8,578.33 526,579.51C521.88,579.81 516.7,580.21 514.5,580.39C512.3,580.57 509.71,580.52 508.75,580.28ZM494.71,579.38C494.32,578.99 494,577.62 494,576.33C494,574.27 494.47,574 498.07,574C501.91,574 502.12,574.15 501.82,576.75C501.56,579 500.94,579.55 498.46,579.8C496.79,579.96 495.11,579.77 494.71,579.38ZM482.5,577.32C475.72,575.8 474,574.81 474,572.42C474,569.6 475.32,569.42 482.92,571.17C487.88,572.32 488.63,573.19 487.39,576.42C486.78,578.02 486.13,578.13 482.5,577.32ZM463.25,571.75C459.27,569.88 461.1,565.31 465.39,566.38C468.24,567.1 468.7,568.73 466.75,571.21C465.77,572.46 465.01,572.57 463.25,571.75ZM501.55,568.84C490.94,567.8 484.41,566.46 472.72,562.9C459.44,558.86 449.97,554.39 439.39,547.18C426.74,538.55 422.72,534.89 423.54,532.75C424.58,530.04 425.95,530.59 433.74,536.84C452.32,551.71 478.8,562.17 501.75,563.69C510.55,564.27 511,564.41 511,566.59C511,567.85 510.66,569.05 510.25,569.25C509.84,569.45 505.92,569.26 501.55,568.84ZM445,563.41C431.68,556.28 410,539.47 410,536.29C410,535.62 410.92,534.58 412.04,533.98C413.81,533.03 414.93,533.67 420.57,538.84C429.9,547.4 448.62,559.71 456.06,562.19C457.49,562.66 456.18,568.01 454.64,567.98C454.01,567.97 449.67,565.92 445,563.41ZM602.5,543C600.81,541.14 599.42,541 581.91,541L563.14,541L557.44,532.92C553.32,527.07 551.3,524.99 550.12,525.38C534.02,530.83 530.76,531.35 513,531.37C496.77,531.4 494.86,531.2 486.71,528.69C471.16,523.9 459.16,517.02 448.1,506.56C430.48,489.87 421.2,468.87 420.24,443.5C419.17,415.16 428.83,390.9 448.73,371.88C469.3,352.22 495.81,344.23 527.5,348.11C556.62,351.68 582.65,370.36 596.3,397.5C613.17,431.06 607.56,474.44 582.84,501.48C580.18,504.4 578,507.1 578,507.49C578,508.12 594.76,531.45 599.91,538L601.88,540.49L608.04,534.59L610.27,536.87L612.5,539.14L609.04,542.07C604.93,545.55 604.82,545.56 602.5,543ZM521.93,498.94C525.46,498.37 528.71,497.68 529.13,497.42C529.56,497.15 525.62,491.03 520.37,483.82C515.12,476.61 510.59,470.1 510.31,469.35C509.88,468.25 513.06,468 527.79,468L545.79,468L548.95,472.92C553.82,480.52 554.77,481.01 557.71,477.47C561.75,472.62 566.78,461.04 568.45,452.79C570.39,443.15 570.41,436.34 568.52,426.34C564.49,405.03 548.9,387.59 529.31,382.49C521.75,380.52 504.17,380.54 496.54,382.53C483.03,386.05 469.73,396.52 463.2,408.77C453.85,426.31 453.62,450.54 462.62,469.7C468.9,483.08 486.02,495.57 502.08,498.48C511.44,500.17 513.98,500.23 521.93,498.94ZM613.79,533.36C612.26,531.83 612.53,531.24 617.44,525.11C628.35,511.49 638.09,493 642.5,477.53C645.2,468.06 647.99,452.71 648,447.25C648,444.45 648.35,444 650.5,444C652.78,444 653,444.38 653,448.25C652.99,454.65 650.38,469.45 647.49,479.53C644.47,490.01 635.06,510.03 629.3,518.22C624.29,525.34 616.68,534.89 615.96,534.95C615.67,534.98 614.69,534.26 613.79,533.36ZM651.25,531.9C647.1,528.96 647.04,528.83 648.47,526.2C651.54,520.52 651.4,520.57 656.29,523.43L660.81,526.08L658.32,530.54C656.95,532.99 655.76,534.98 655.66,534.96C655.57,534.93 653.59,533.56 651.25,531.9ZM402.8,528.61C400.12,525.26 400.11,525.21 402.06,523.44C403.97,521.72 404.13,521.76 407.02,524.52C410.47,527.82 410.66,528.78 408.25,530.61C405.85,532.43 405.84,532.43 402.8,528.61ZM394.24,517.25C383.91,502.27 374.1,475.51 372.52,458C372.19,454.42 371.71,449.81 371.45,447.75C370.99,444.14 371.09,444 373.99,444C376.88,444 377,444.17 377,448.43C377,466.34 384.79,491.21 396.27,509.99C399.63,515.48 400.57,517.81 399.8,518.74C398.15,520.73 396.29,520.23 394.24,517.25ZM661.19,514.27C658.83,512.87 657.11,511.23 657.39,510.62C670.15,482.11 674.38,464.01 674.35,438C674.33,424.07 673.92,419.54 671.69,408.9C670.24,401.97 667.66,392.29 665.96,387.4C662.49,377.42 654.52,360.46 650.59,354.71C649.17,352.62 648,350.54 648,350.09C648,348.84 655.94,343.85 656.94,344.46C658.61,345.5 667.24,361.11 671.54,370.87C688.24,408.81 690.12,451.91 676.84,492C673.44,502.27 667.77,515.41 666.36,516.28C665.89,516.57 663.56,515.67 661.19,514.27ZM344.1,482.35C339.63,465.65 338.02,431.83 340.87,414.62C343.36,399.57 353.3,368.85 357.03,364.66C357.45,364.19 359.65,364.87 361.94,366.16C366.76,368.88 366.76,368.62 361.64,381C350.38,408.17 347.09,442.5 352.97,471.5C355.51,484.05 355.53,483.63 352.25,484.35C350.74,484.68 348.52,485.23 347.32,485.58C345.44,486.11 344.99,485.66 344.1,482.35ZM383,433.25C383.02,411.32 390.37,389.16 404.76,367.72C409.79,360.21 411.23,359.11 413.5,361C414.78,362.07 414.6,362.72 412.12,365.87C398.54,383.11 390.2,404.81 387.82,429.14C386.81,439.55 386.44,441 384.83,441C383.21,441 383,440.1 383,433.25ZM637.67,440.33C637.3,439.97 637,436.65 637,432.96C637,419.67 631.81,398.46 625.52,386.05L623,381.07L625.09,379.95C626.23,379.34 627.39,379.06 627.66,379.32C627.93,379.59 629.96,384.02 632.18,389.16C638.02,402.66 641.03,415.33 641.72,429.25C642.27,440.49 642.21,441 640.31,441C639.22,441 638.03,440.7 637.67,440.33ZM372,433.5C372,429.37 372.2,429 374.5,429C376.8,429 377,429.37 377,433.5C377,437.63 376.8,438 374.5,438C372.2,438 372,437.63 372,433.5ZM648,433.07C648,428.34 648.17,428 650.48,428C652.27,428 653.13,428.67 653.56,430.4C654.7,434.91 653.72,437.47 650.75,437.82C648.07,438.12 648,438 648,433.07ZM373,420.12C373,418.54 373.28,415.84 373.62,414.12C374.16,411.46 374.69,411 377.23,411C379.82,411 380.15,411.3 379.68,413.25C379.38,414.49 378.83,417.19 378.46,419.25C377.9,422.35 377.36,423 375.39,423C373.42,423 373,422.49 373,420.12ZM646.44,419.25C643.63,402.92 636.88,384.15 629.58,372.36C627.39,368.82 627.23,368.06 628.46,367.03C631.35,364.64 633.34,366.49 638.12,376C645.2,390.08 654.2,419.24 652.39,422.18C652.11,422.63 650.8,423 649.49,423C647.5,423 646.98,422.36 646.44,419.25ZM376.64,403.23C376.34,402.74 376.35,401.37 376.66,400.17C377.09,398.56 378,398 380.18,398C382.81,398 383.1,398.3 382.82,400.75C382.57,402.88 381.9,403.57 379.84,403.81C378.38,403.98 376.94,403.72 376.64,403.23ZM382.26,391.97C380.38,391.22 380.17,390.68 380.95,388.63C383.01,383.22 389.12,371.66 393.55,364.82C398.47,357.21 408.94,344 410.04,344C410.4,344 411.49,344.88 412.47,345.97C414.19,347.87 414.1,348.09 409.46,353.22C403.27,360.05 395.43,372.11 389.61,383.75C387.06,388.84 384.87,392.97 384.74,392.94C384.61,392.9 383.49,392.47 382.26,391.97ZM621.79,360.06C619.75,357.22 619.37,356.03 620.25,355.15C622.1,353.3 623.72,353.8 625.93,356.9C628.46,360.45 628.52,361.65 626.24,362.87C624.83,363.63 623.95,363.07 621.79,360.06ZM366.29,357.35L362.08,354.89L364.24,350.45C365.43,348 366.79,346 367.27,346C367.75,346 370.11,347.35 372.51,349.01L376.88,352.01L374.26,356.01C372.82,358.2 371.39,359.95 371.07,359.9C370.76,359.84 368.61,358.7 366.29,357.35ZM613.44,349.88C610.4,346.46 594.69,333.54 588.29,329.21C585.1,327.05 579.24,323.61 575.25,321.55C568.08,317.85 567.2,316.82 568.91,314.11C570.13,312.18 573.09,313.13 582.46,318.49C592.06,323.98 601.91,331.44 612,340.84L619.5,347.83L617.44,349.95L615.37,352.07L613.44,349.88ZM595,346.9C592.53,344.7 586.9,340.49 582.5,337.56C563.21,324.68 546.77,319.15 519.75,316.43C514.41,315.9 514,315.68 514,313.31L514,310.77L521.75,311.45C539.02,312.99 556.01,317.56 570.24,324.51C578.81,328.7 592.38,337.71 598.63,343.37C602.86,347.19 603.29,347.94 602.11,349.37C600.29,351.55 600.17,351.51 595,346.9ZM377.29,340.81C372.37,337.18 372.28,337.53 380.92,327.3C399.08,305.82 427.69,286.72 456.15,277.07C473.79,271.09 492.21,268 510.19,268L517.16,268L516.5,279.5L502.5,280.15C467.18,281.79 436.84,293.58 408.14,316.8C399.75,323.59 387.1,336.67 383.77,341.99C382.2,344.51 382.33,344.54 377.29,340.81ZM416.52,342.02C414.68,339.99 414.7,339.9 418.03,336.46L421.42,332.97L425.46,337.01L421.92,340.55L418.38,344.08L416.52,342.02ZM428.59,332.1C427.71,331.13 427,329.92 427,329.41C427,328.28 441.13,319.36 449.5,315.21C465.7,307.16 485.59,302.25 505.75,301.32L519,300.7L519,303.2C519,305.68 518.96,305.69 506.98,306.34C480.09,307.79 452.11,317.11 434.62,330.46C430.42,333.67 430.09,333.76 428.59,332.1ZM558.88,313.99C557.03,312.91 557.48,308 559.43,308C562.02,308 564.26,310.62 563.56,312.83C562.81,315.16 561.46,315.5 558.88,313.99ZM542.75,309.77C538.36,308.86 538,308.56 538,305.78C538,302.86 538.1,302.8 541.75,303.44C548.91,304.7 552.17,306.11 551.57,307.68C551.26,308.5 551,309.58 551,310.08C551,311.17 549.13,311.1 542.75,309.77ZM524,304C524,301.49 524.4,301 526.42,301C530.35,301 532,302.06 532,304.61C532,306.73 531.55,307 528,307C524.22,307 524,306.83 524,304Z" style="fill:white;fill-rule:nonzero;"/>
                </g>
            </g>
        </g>
        <g transform="matrix(10.9789,0,0,10.9789,-4112.84,-1463.92)">
            <text x="405.87px" y="179.974px" style="font-family:'SFProText-Heavy', 'SF Pro Text';font-weight:800;font-size:12px;">CENTRQ</text>
        </g>
    </g>
</svg>
